<?xml version="1.0" encoding="UTF-8" standalone="no"?>
<svg
   xmlns:dc="http://purl.org/dc/elements/1.1/"
   xmlns:cc="http://creativecommons.org/ns#"
   xmlns:rdf="http://www.w3.org/1999/02/22-rdf-syntax-ns#"
   xmlns:svg="http://www.w3.org/2000/svg"
   xmlns="http://www.w3.org/2000/svg"
   xmlns:sodipodi="http://sodipodi.sourceforge.net/DTD/sodipodi-0.dtd"
   xmlns:inkscape="http://www.inkscape.org/namespaces/inkscape"
   width="2048"
   height="2048"
   viewBox="0 0 541.86665 541.86668"
   version="1.1"
   id="svg8"
   inkscape:version="1.0.2-2 (e86c870879, 2021-01-15)"
   sodipodi:docname="tiles.svg"
   inkscape:export-filename="C:\Prog\Projets\ArtificialLifePlayground\data\tiles.png"
   inkscape:export-xdpi="96.000008"
   inkscape:export-ydpi="96.000008">
  <defs
     id="defs2" />
  <sodipodi:namedview
     id="base"
     pagecolor="#ffffff"
     bordercolor="#666666"
     borderopacity="1.0"
     inkscape:pageopacity="0.0"
     inkscape:pageshadow="2"
     inkscape:zoom="0.98994949"
     inkscape:cx="627.02845"
     inkscape:cy="439.79541"
     inkscape:document-units="mm"
     inkscape:current-layer="layer1"
     inkscape:document-rotation="0"
     showgrid="true"
     units="px"
     inkscape:snap-global="false"
     inkscape:window-width="2560"
     inkscape:window-height="1377"
     inkscape:window-x="1912"
     inkscape:window-y="-8"
     inkscape:window-maximized="1"
     inkscape:pagecheckerboard="true">
    <inkscape:grid
       type="xygrid"
       id="grid866"
       spacingx="0.26458333"
       empspacing="256" />
  </sodipodi:namedview>
  <metadata
     id="metadata5">
    <rdf:RDF>
      <cc:Work
         rdf:about="">
        <dc:format>image/svg+xml</dc:format>
        <dc:type
           rdf:resource="http://purl.org/dc/dcmitype/StillImage" />
        <dc:title />
      </cc:Work>
    </rdf:RDF>
  </metadata>
  <g
     inkscape:label="Calque 1"
     inkscape:groupmode="layer"
     id="layer1">
    <g
       id="g988"
       transform="matrix(0.78097519,-0.38997883,0.38997883,0.78097519,8.5921784,47.001725)">
      <path
         style="fill:#103800;fill-opacity:1;stroke:none;stroke-width:0.224446px;stroke-linecap:butt;stroke-linejoin:miter;stroke-opacity:1"
         d="m 100.65686,33.34666 c 0,0 -3.76411,-10.947452 3.10429,-16.742035 6.86841,-5.794585 22.48078,-6.01991 22.48078,-6.01991 0,0 -2.19345,15.062868 -8.90932,21.274632 -6.71585,6.211773 -16.67575,1.487313 -16.67575,1.487313 z"
         id="path969"
         sodipodi:nodetypes="cscsc" />
      <path
         style="fill:#103800;fill-opacity:1;stroke:none;stroke-width:0.224446px;stroke-linecap:butt;stroke-linejoin:miter;stroke-opacity:1"
         d="m 101.32465,34.845054 c 0,0 7.25439,-9.021587 15.81878,-6.300673 8.5644,2.720913 18.04575,11.935319 18.04575,11.935319 0,0 -14.87876,10.049248 -23.71475,7.679822 -8.836,-2.369419 -10.14978,-13.314468 -10.14978,-13.314468 z"
         id="path971"
         sodipodi:nodetypes="cscsc" />
      <path
         style="fill:#103800;fill-opacity:1;stroke:none;stroke-width:0.224446px;stroke-linecap:butt;stroke-linejoin:miter;stroke-opacity:1"
         d="m 101.33593,32.99294 c 0,0 11.52796,1.058844 13.9944,9.699961 2.46643,8.641123 -5.71661,26.45801 -5.71661,26.45801 0,0 -10.853743,-11.666981 -13.763206,-20.340154 -2.909472,-8.673171 5.485416,-15.817817 5.485416,-15.817817 z"
         id="path973"
         sodipodi:nodetypes="cscsc" />
      <path
         style="fill:#103800;fill-opacity:1;stroke:none;stroke-width:0.224446px;stroke-linecap:butt;stroke-linejoin:miter;stroke-opacity:1"
         d="m 101.254,33.385852 c 0,0 5.21077,10.337456 -0.81042,17.008102 -6.02119,6.670651 -25.575673,6.587995 -25.575673,6.587995 0,0 4.251323,-12.802752 10.064927,-19.866102 C 90.74643,30.052491 101.254,33.385852 101.254,33.385852 Z"
         id="path975"
         sodipodi:nodetypes="cscsc" />
      <path
         style="fill:#103800;fill-opacity:1;stroke:none;stroke-width:0.224446px;stroke-linecap:butt;stroke-linejoin:miter;stroke-opacity:1"
         d="m 101.46904,33.655278 c 0,0 -6.671213,9.460975 -15.390104,7.285389 C 77.36004,38.765086 67.893799,30.645611 67.893799,30.645611 c 0,0 13.638488,-11.446127 22.606276,-9.638455 8.967789,1.807662 10.968965,12.648122 10.968965,12.648122 z"
         id="path977"
         sodipodi:nodetypes="cscsc" />
      <path
         style="fill:#103800;fill-opacity:1;stroke:none;stroke-width:0.224446px;stroke-linecap:butt;stroke-linejoin:miter;stroke-opacity:1"
         d="m 103.10123,33.996954 c 0,0 -11.509574,1.242879 -15.636875,-6.739453 -4.127308,-7.982333 1.63142,-24.9032866 1.63142,-24.9032866 0,0 11.685005,7.1262246 16.252915,15.0523176 4.56793,7.926087 -2.24746,16.590422 -2.24746,16.590422 z"
         id="path979"
         sodipodi:nodetypes="cscsc" />
    </g>
    <g
       id="g921">
      <path
         style="fill:#8d8d8d;fill-opacity:1;stroke:none;stroke-width:0.264583px;stroke-linecap:butt;stroke-linejoin:miter;stroke-opacity:1"
         d="M 19.304778,57.938937 9.6663849,50.568403 13.824123,35.638344 14.958052,20.519295 c 0,0 9.260415,-5.291666 10.772321,-5.669642 1.511906,-0.377977 13.796131,-4.9136912 13.796131,-4.9136912 l 12.095237,7.1815482 7.748513,11.528274 -12.341886,9.260417 6.047621,12.473212 -6.803573,4.535715 -0.320317,2.078869 -8.126487,2.078871 -9.638395,-0.377979 z"
         id="path833"
         sodipodi:nodetypes="ccccscccccccccc" />
      <path
         id="path835"
         style="fill:#656565;fill-opacity:1;stroke:none;stroke-width:0.264583px;stroke-linecap:butt;stroke-linejoin:miter;stroke-opacity:1"
         d="m 39.52643,9.9359619 5.555732,7.4171181 -3.340881,5.746419 -4.410067,2.806031 6.14743,3.40806 -1.269691,6.347417 -2.271696,2.338359 -3.340881,4.410067 8.485786,3.34088 c 0,0 -4.944298,4.677132 -5.211567,4.944401 -0.267271,0.267266 -6.347632,1.403586 -7.817612,1.604037 -1.469983,0.200453 -7.88479,-1.604037 -7.88479,-1.604037 l -5.412071,2.138371 -1.60352,2.4722 -0.701249,0.451652 2.853572,2.181778 8.882146,0.756028 9.638686,0.37827 8.126119,-2.078943 7.9375,-2.078942 5.480804,-3.401714 -4.724776,-13.607068 4.724776,-9.260415 -7.748365,-11.528495 z"
         sodipodi:nodetypes="cccccccccsscccccccccccccc" />
      <path
         id="path840"
         style="fill:#afafaf;fill-opacity:1;stroke:none;stroke-width:0.264583px;stroke-linecap:butt;stroke-linejoin:miter;stroke-opacity:1"
         d="m 39.52643,9.9359619 c 0,0 -12.284151,4.5359351 -13.796057,4.9139121 -1.511906,0.377976 -10.772469,5.669421 -10.772469,5.669421 l -1.133781,15.118974 -2.957959,10.620539 1.743046,-1.844847 0.935343,-1.002006 c 0,0 1.470038,-3.20761 1.536858,-3.408061 0.06682,-0.200454 0.734838,-3.941879 0.734838,-3.941879 0,0 3.474314,-3.541387 4.543392,-4.209563 1.069078,-0.668173 -0.534334,-2.606041 -0.534334,-2.606041 L 17.553611,25.5717 c 0,0 0.668075,-2.940083 0.935343,-3.741891 0.267271,-0.801809 2.605786,-2.538915 2.939873,-2.739367 0.334084,-0.200452 8.820132,-4.276225 8.820132,-4.276225 z" />
      <path
         style="fill:#afafaf;fill-opacity:1;stroke:none;stroke-width:0.264583px;stroke-linecap:butt;stroke-linejoin:miter;stroke-opacity:1"
         d="m 35.260084,16.81849 -3.207235,1.670435 -0.334086,1.937704 1.670433,1.603617 0.267269,-1.937704 1.002263,-1.069078 1.00226,-0.935443 -0.267269,-0.935444 z"
         id="path845" />
      <path
         style="fill:#afafaf;fill-opacity:1;stroke:none;stroke-width:0.264583px;stroke-linecap:butt;stroke-linejoin:miter;stroke-opacity:1"
         d="m 21.362068,37.665513 c 0,0 -1.603618,2.405426 -2.605878,3.140417 -1.00226,0.734991 -1.202713,2.004521 -1.403164,2.27179 -0.200454,0.267271 -1.80407,2.739514 -1.80407,2.739514 l 2.873148,-1.469982 2.472243,-2.004523 0.200453,-1.937704 z"
         id="path847"
         sodipodi:nodetypes="cssccccc" />
      <path
         style="fill:#4f4f4f;fill-opacity:1;stroke:none;stroke-width:0.264583px;stroke-linecap:butt;stroke-linejoin:miter;stroke-opacity:1"
         d="m 49.826272,20.292994 0.601356,3.875408 -2.204971,2.071338 -0.80181,0.334087 c 0,0 -0.801809,-1.670434 -0.267268,-1.737252 0.534537,-0.06682 1.870884,-0.801806 1.870884,-0.801806 z"
         id="path849" />
      <path
         style="fill:#4f4f4f;fill-opacity:1;stroke:none;stroke-width:0.264583px;stroke-linecap:butt;stroke-linejoin:miter;stroke-opacity:1"
         d="m 49.692639,44.213615 4.677217,3.207237 -1.002263,1.670433 c 0,0 -0.200451,1.202714 -0.868624,1.737252 -0.668174,0.53454 -3.274052,1.670434 -3.274052,1.670434 l 2.071338,-1.870885 1.336347,-2.204974 -0.868624,-1.937705 z"
         id="path851" />
    </g>
    <g
       id="g951"
       transform="matrix(1.1175537,0,0,1.1175537,-170.77597,-7.5723545)">
      <ellipse
         style="fill:#9c5000;fill-opacity:1;stroke-width:0;stroke-linecap:round;stroke-linejoin:round;paint-order:stroke fill markers"
         id="path871"
         cx="304.82086"
         cy="37.618187"
         rx="17.238884"
         ry="19.711128" />
      <ellipse
         style="fill:#ffcc93;fill-opacity:1;stroke-width:0;stroke-linecap:round;stroke-linejoin:round;paint-order:stroke fill markers"
         id="path869"
         cx="304.82089"
         cy="48.4426"
         rx="19.777945"
         ry="13.163024" />
      <ellipse
         style="fill:#502805;fill-opacity:1;stroke-width:0;stroke-linecap:round;stroke-linejoin:round;paint-order:stroke fill markers"
         id="path873"
         cx="298.12964"
         cy="49.411453"
         rx="2.3130386"
         ry="5.1115294" />
      <ellipse
         style="fill:#502805;fill-opacity:1;stroke-width:0;stroke-linecap:round;stroke-linejoin:round;paint-order:stroke fill markers"
         id="ellipse875"
         cx="311.77942"
         cy="49.411453"
         rx="2.3130386"
         ry="5.1115294" />
      <path
         style="fill:#9c5000;fill-opacity:1;stroke:none;stroke-width:0.304466px;stroke-linecap:butt;stroke-linejoin:miter;stroke-opacity:1"
         d="m 299.11579,19.035373 c -0.28347,0.125124 -7.37052,1.251291 -11.81174,0.500516 -4.44122,-0.750774 -7.55954,-1.25129 -7.55954,-1.25129 0,0 -1.13393,0.06257 -1.37015,1.126161 -0.23624,1.063597 0.37796,8.821602 5.57515,9.634942 3.33433,0.521811 6.70906,2.940533 6.70906,2.940533 z"
         id="path883"
         sodipodi:nodetypes="czcsscc" />
      <path
         style="fill:#c7a98c;fill-opacity:1;stroke:none;stroke-width:0.264583px;stroke-linecap:butt;stroke-linejoin:miter;stroke-opacity:1"
         d="m 295.03215,15.434815 c -7.10197,-0.539223 -7.64435,-1.184141 -12.42804,-4.476764 3.04676,6.069911 0.69221,10.289309 12.72872,9.721928 z"
         id="path889"
         sodipodi:nodetypes="cccc" />
      <path
         style="fill:#9c5000;fill-opacity:1;stroke:none;stroke-width:0.304466px;stroke-linecap:butt;stroke-linejoin:miter;stroke-opacity:1"
         d="m 310.60195,19.035373 c 0.28347,0.125124 7.37052,1.251291 11.81174,0.500516 4.44122,-0.750774 7.55954,-1.25129 7.55954,-1.25129 0,0 1.13393,0.06257 1.37015,1.126161 0.23624,1.063597 -0.37796,8.821602 -5.57515,9.634942 -3.33433,0.521811 -6.70906,2.940533 -6.70906,2.940533 z"
         id="path885"
         sodipodi:nodetypes="czcsscc" />
      <path
         style="fill:#c7a98c;fill-opacity:1;stroke:none;stroke-width:0.264583px;stroke-linecap:butt;stroke-linejoin:miter;stroke-opacity:1"
         d="m 314.0751,15.434815 c 7.10197,-0.539223 7.64435,-1.184141 12.42804,-4.476764 -3.04676,6.069911 -0.69221,10.289309 -12.72872,9.721928 z"
         id="path891"
         sodipodi:nodetypes="cccc" />
      <rect
         style="fill:#9c5000;fill-opacity:1;stroke:none;stroke-width:0;stroke-linecap:round;stroke-linejoin:round;paint-order:stroke fill markers"
         id="rect887"
         width="19.811354"
         height="7.784225"
         x="294.66464"
         y="14.165285"
         ry="1.3363471" />
      <circle
         style="fill:#000000;fill-opacity:1;stroke-width:0;stroke-linecap:round;stroke-linejoin:round;paint-order:stroke fill markers"
         id="path877"
         cx="299.90979"
         cy="29.09897"
         r="2.5724692" />
      <circle
         style="fill:#000000;fill-opacity:1;stroke-width:0;stroke-linecap:round;stroke-linejoin:round;paint-order:stroke fill markers"
         id="circle879"
         cx="309.33105"
         cy="29.09897"
         r="2.5724692" />
    </g>
    <g
       id="g955"
       transform="translate(-135.50565)">
      <path
         id="path874"
         style="fill:#ffffff;fill-opacity:1;stroke:none;stroke-width:1.32292;stroke-linecap:butt;stroke-linejoin:miter;stroke-miterlimit:4;stroke-dasharray:none;stroke-opacity:1"
         sodipodi:type="inkscape:offset"
         inkscape:radius="1.3363467"
         inkscape:original="M 396.92578 5.0507812 L 359.87305 26.931641 L 376.69922 37.451172 L 358.57031 57.314453 L 398.70703 35.515625 L 380.35938 25.359375 L 396.92578 5.0507812 z "
         d="m 396.92383,3.7148438 a 1.3364804,1.3364804 0 0 0 -0.67774,0.1855468 L 359.19336,25.78125 a 1.3364804,1.3364804 0 0 0 -0.0293,2.283203 l 15.46875,9.669922 -17.04883,18.679687 a 1.3364804,1.3364804 0 0 0 1.625,2.074219 L 399.3457,36.689453 a 1.3364804,1.3364804 0 0 0 0.008,-2.34375 L 382.4043,24.964844 397.96094,5.8945312 a 1.3364804,1.3364804 0 0 0 -1.03711,-2.1796874 z"
         transform="translate(-4.6967101,3.3213786)" />
      <path
         style="fill:#ffe771;fill-opacity:1;stroke:none;stroke-width:1.32292;stroke-linecap:butt;stroke-linejoin:miter;stroke-miterlimit:4;stroke-dasharray:none;stroke-opacity:1"
         d="M 392.22855,8.3721283 355.17609,30.252439 372.00264,40.77283 353.87443,60.634921 394.01101,38.836196 375.66355,28.6809 Z"
         id="path872"
         sodipodi:nodetypes="ccccccc" />
    </g>
    <path
       style="fill:#1b6900;fill-opacity:1;stroke:none;stroke-width:0.224446px;stroke-linecap:butt;stroke-linejoin:miter;stroke-opacity:1"
       d="m 101.32465,34.845054 c 0,0 7.25439,-9.021587 15.81878,-6.300673 8.5644,2.720913 17.45754,14.391259 17.45754,14.391259 0,0 -14.29055,7.593308 -23.12654,5.223882 -8.836,-2.369419 -10.14978,-13.314468 -10.14978,-13.314468 z"
       id="path959"
       sodipodi:nodetypes="cscsc" />
    <path
       style="fill:#1b6900;fill-opacity:1;stroke:none;stroke-width:0.224446px;stroke-linecap:butt;stroke-linejoin:miter;stroke-opacity:1"
       d="m 101.33593,32.99294 c 0,0 11.52796,1.058844 13.9944,9.699961 2.46643,8.641123 -6.94639,20.703557 -6.94639,20.703557 0,0 -9.623963,-5.912528 -12.533426,-14.585701 -2.909472,-8.673171 5.485416,-15.817817 5.485416,-15.817817 z"
       id="path961"
       sodipodi:nodetypes="cscsc" />
    <path
       style="fill:#1b6900;fill-opacity:1;stroke:none;stroke-width:0.224446px;stroke-linecap:butt;stroke-linejoin:miter;stroke-opacity:1"
       d="m 101.254,33.385852 c 0,0 5.21077,10.337456 -0.81042,17.008102 -6.02119,6.670651 -21.837488,7.683462 -21.837488,7.683462 0,0 0.513138,-13.898219 6.326742,-20.961569 C 90.74643,30.052491 101.254,33.385852 101.254,33.385852 Z"
       id="path963"
       sodipodi:nodetypes="cscsc" />
    <path
       style="fill:#1b6900;fill-opacity:1;stroke:none;stroke-width:0.224446px;stroke-linecap:butt;stroke-linejoin:miter;stroke-opacity:1"
       d="m 101.46904,33.655278 c 0,0 -6.671213,9.460975 -15.390104,7.285389 C 77.36004,38.765086 68.036734,26.240173 68.036734,26.240173 c 0,0 13.495553,-7.040689 22.463341,-5.233017 8.967789,1.807662 10.968965,12.648122 10.968965,12.648122 z"
       id="path965"
       sodipodi:nodetypes="cscsc" />
    <path
       style="fill:#1b6900;fill-opacity:1;stroke:none;stroke-width:0.224446px;stroke-linecap:butt;stroke-linejoin:miter;stroke-opacity:1"
       d="m 103.10123,33.996954 c 0,0 -11.509574,1.242879 -15.636875,-6.739453 -4.127308,-7.982333 -0.885072,-24.8624135 -0.885072,-24.8624135 0,0 14.201497,7.0853515 18.769407,15.0114445 4.56793,7.926087 -2.24746,16.590422 -2.24746,16.590422 z"
       id="path967"
       sodipodi:nodetypes="cscsc" />
    <path
       style="fill:#1b6900;fill-opacity:1;stroke:none;stroke-width:0.224446px;stroke-linecap:butt;stroke-linejoin:miter;stroke-opacity:1"
       d="m 100.65686,33.34666 c 0,0 -3.76411,-10.947452 3.10429,-16.742035 6.86841,-5.794585 21.91381,-6.9648505 21.91381,-6.9648505 0,0 -1.62648,16.0078085 -8.34235,22.2195725 -6.71585,6.211773 -16.67575,1.487313 -16.67575,1.487313 z"
       id="path957"
       sodipodi:nodetypes="cscsc" />
    <g
       id="g888"
       transform="matrix(0.78097519,-0.38997883,0.38997883,0.78097519,8.5921784,115.41542)"
       style="fill:#c7c7c7;fill-opacity:1">
      <path
         style="fill:#c7c7c7;fill-opacity:1;stroke:none;stroke-width:0.224446px;stroke-linecap:butt;stroke-linejoin:miter;stroke-opacity:1"
         d="m 100.65686,33.34666 c 0,0 -3.76411,-10.947452 3.10429,-16.742035 6.86841,-5.794585 22.48078,-6.01991 22.48078,-6.01991 0,0 -2.19345,15.062868 -8.90932,21.274632 -6.71585,6.211773 -16.67575,1.487313 -16.67575,1.487313 z"
         id="path875"
         sodipodi:nodetypes="cscsc" />
      <path
         style="fill:#c7c7c7;fill-opacity:1;stroke:none;stroke-width:0.224446px;stroke-linecap:butt;stroke-linejoin:miter;stroke-opacity:1"
         d="m 101.32465,34.845054 c 0,0 7.25439,-9.021587 15.81878,-6.300673 8.5644,2.720913 18.04575,11.935319 18.04575,11.935319 0,0 -14.87876,10.049248 -23.71475,7.679822 -8.836,-2.369419 -10.14978,-13.314468 -10.14978,-13.314468 z"
         id="path878"
         sodipodi:nodetypes="cscsc" />
      <path
         style="fill:#c7c7c7;fill-opacity:1;stroke:none;stroke-width:0.224446px;stroke-linecap:butt;stroke-linejoin:miter;stroke-opacity:1"
         d="m 101.33593,32.99294 c 0,0 11.52796,1.058844 13.9944,9.699961 2.46643,8.641123 -5.71661,26.45801 -5.71661,26.45801 0,0 -10.853743,-11.666981 -13.763206,-20.340154 -2.909472,-8.673171 5.485416,-15.817817 5.485416,-15.817817 z"
         id="path880"
         sodipodi:nodetypes="cscsc" />
      <path
         style="fill:#c7c7c7;fill-opacity:1;stroke:none;stroke-width:0.224446px;stroke-linecap:butt;stroke-linejoin:miter;stroke-opacity:1"
         d="m 101.254,33.385852 c 0,0 5.21077,10.337456 -0.81042,17.008102 -6.02119,6.670651 -25.575673,6.587995 -25.575673,6.587995 0,0 4.251323,-12.802752 10.064927,-19.866102 C 90.74643,30.052491 101.254,33.385852 101.254,33.385852 Z"
         id="path882"
         sodipodi:nodetypes="cscsc" />
      <path
         style="fill:#c7c7c7;fill-opacity:1;stroke:none;stroke-width:0.224446px;stroke-linecap:butt;stroke-linejoin:miter;stroke-opacity:1"
         d="m 101.46904,33.655278 c 0,0 -6.671213,9.460975 -15.390104,7.285389 C 77.36004,38.765086 67.893799,30.645611 67.893799,30.645611 c 0,0 13.638488,-11.446127 22.606276,-9.638455 8.967789,1.807662 10.968965,12.648122 10.968965,12.648122 z"
         id="path884"
         sodipodi:nodetypes="cscsc" />
      <path
         style="fill:#c7c7c7;fill-opacity:1;stroke:none;stroke-width:0.224446px;stroke-linecap:butt;stroke-linejoin:miter;stroke-opacity:1"
         d="m 103.10123,33.996954 c 0,0 -11.509574,1.242879 -15.636875,-6.739453 -4.127308,-7.982333 1.63142,-24.9032866 1.63142,-24.9032866 0,0 11.685005,7.1262246 16.252915,15.0523176 4.56793,7.926087 -2.24746,16.590422 -2.24746,16.590422 z"
         id="path886"
         sodipodi:nodetypes="cscsc" />
    </g>
    <g
       id="g912"
       transform="matrix(1.1175537,0,0,1.1175537,-170.77597,60.841336)">
      <path
         id="ellipse890"
         style="fill:#9c9c9c;fill-opacity:1;stroke-width:0;stroke-linecap:round;stroke-linejoin:round;paint-order:stroke fill markers"
         d="M 604.80469 289.7832 C 601.67764 289.7832 599.16016 292.30068 599.16016 295.42773 L 599.16016 312.83203 C 589.26397 313.66521 577.31542 314.02965 568.07031 312.4668 C 549.31138 309.29566 536.13867 307.18164 536.13867 307.18164 C 536.13867 307.18164 531.34931 307.44703 530.35156 311.93945 C 529.35373 316.4319 531.94837 349.19936 553.90039 352.63477 C 561.15024 353.76934 568.40865 357.01775 573.78125 359.91211 A 72.814029 83.256356 0 0 0 569.24414 388.84375 A 72.814029 83.256356 0 0 0 642.05664 472.09961 A 72.814029 83.256356 0 0 0 714.87109 388.84375 A 72.814029 83.256356 0 0 0 710.38281 360.06641 C 715.78141 357.13347 723.15262 353.79011 730.53516 352.63477 C 752.48718 349.19936 755.08182 316.4319 754.08398 311.93945 C 753.08623 307.44703 748.29688 307.18164 748.29688 307.18164 C 748.29688 307.18164 735.12612 309.29566 716.36719 312.4668 C 706.34283 314.16138 693.15622 313.58952 682.83984 312.61133 L 682.83984 295.42773 C 682.83984 292.30068 680.32236 289.7832 677.19531 289.7832 L 604.80469 289.7832 z "
         transform="matrix(0.23675223,0,0,0.23675223,152.81232,-54.441532)" />
      <ellipse
         style="fill:#ffffff;fill-opacity:1;stroke-width:0;stroke-linecap:round;stroke-linejoin:round;paint-order:stroke fill markers"
         id="ellipse892"
         cx="304.82089"
         cy="48.4426"
         rx="19.777945"
         ry="13.163024" />
      <ellipse
         style="fill:#bababa;fill-opacity:1;stroke-width:0;stroke-linecap:round;stroke-linejoin:round;paint-order:stroke fill markers"
         id="ellipse894"
         cx="298.12964"
         cy="49.411453"
         rx="2.3130386"
         ry="5.1115294" />
      <ellipse
         style="fill:#bababa;fill-opacity:1;stroke-width:0;stroke-linecap:round;stroke-linejoin:round;paint-order:stroke fill markers"
         id="ellipse896"
         cx="311.77942"
         cy="49.411453"
         rx="2.3130386"
         ry="5.1115294" />
      <path
         id="path900"
         style="fill:#e0e0e0;fill-opacity:1;stroke:none;stroke-width:1.11755px;stroke-linecap:butt;stroke-linejoin:miter;stroke-opacity:1"
         d="M 548.21875 276.23633 C 560.84199 301.38499 551.55572 319.00008 599.17773 317.40234 C 599.16916 317.27453 599.16016 317.14764 599.16016 317.01758 L 599.16016 295.42773 C 599.16016 295.28973 599.17005 295.15499 599.17969 295.01953 C 570.68889 292.7638 568.0601 289.89316 548.21875 276.23633 z M 733.63867 276.23633 C 713.83076 289.87015 711.17401 292.75378 682.81836 295.00781 C 682.82856 295.14708 682.83984 295.28577 682.83984 295.42773 L 682.83984 317.01758 C 682.83984 317.14963 682.82915 317.27847 682.82031 317.4082 C 730.28482 318.96688 721.02776 301.36043 733.63867 276.23633 z "
         transform="matrix(0.23675223,0,0,0.23675223,152.81232,-54.441532)" />
      <circle
         style="fill:#000000;fill-opacity:1;stroke-width:0;stroke-linecap:round;stroke-linejoin:round;paint-order:stroke fill markers"
         id="circle908"
         cx="299.90979"
         cy="29.09897"
         r="2.5724692" />
      <circle
         style="fill:#000000;fill-opacity:1;stroke-width:0;stroke-linecap:round;stroke-linejoin:round;paint-order:stroke fill markers"
         id="circle910"
         cx="309.33105"
         cy="29.09897"
         r="2.5724692" />
    </g>
    <path
       id="path914"
       style="fill:#fefefe;fill-opacity:1;stroke:none;stroke-width:0.8483px;stroke-linecap:butt;stroke-linejoin:miter;stroke-opacity:1"
       d="M 327.22852 267.62305 C 327.22852 267.62305 319.89949 305.82771 323.81055 337.08984 C 292.43263 339.35217 257.14648 357.74609 257.14648 357.74609 C 257.14648 357.74609 284.86499 394.96115 314.12305 409.12109 C 298.61812 437.08522 297.09375 478.07617 297.09375 478.07617 C 297.09375 478.07617 342.40742 475.1678 369.14844 457.77344 C 383.86296 482.34078 409.64062 498.17969 409.64062 498.17969 C 409.64063 498.17969 431.50808 470.14789 436.45703 442.29883 C 468.86676 442.01098 508.72852 420.84766 508.72852 420.84766 C 508.72852 420.84766 480.72803 384.11651 451.22852 369.88281 C 470.12376 342.76725 474.99219 295.00586 474.99219 295.00586 C 474.99219 295.00586 421.81239 299.1435 394.83203 319.22461 C 374.89273 291.40998 327.22852 267.62305 327.22852 267.62305 z "
       transform="scale(0.26458333)" />
  </g>
</svg>
